<?xml version="1.0" encoding="UTF-8"?>
<svg xmlns="http://www.w3.org/2000/svg" width="940" height="330" viewBox="0 0 940 330" role="img" aria-label="Reconciliation decision flow">
<rect x="0" y="0" width="940" height="330" rx="14" fill="#0d1210" />
    <defs><marker id="ah4" markerWidth="9" markerHeight="9" refX="7" refY="3" orient="auto"><path d="M0 0l7 3-7 3z" fill="#5e7268" /></marker></defs>
    <rect x="16" y="140" width="150" height="52" rx="9" fill="#101614" stroke="#26362f" stroke-width="1" /><text x="32" y="166" font-family="ui-monospace,&quot;SF Mono&quot;,Menlo,Consolas,monospace" fill="#eaf5ef" font-size="13px" font-weight="600">query broker</text><text x="32" y="184" font-family="ui-monospace,&quot;SF Mono&quot;,Menlo,Consolas,monospace" fill="#7d928a" font-size="11px">order truth + fills</text>
    <path d="M166 166 H206" marker-end="url(#ah4)" stroke="#5e7268" stroke-width="1.4" fill="none" />

    
    <path d="M266 128 L316 166 L266 204 L216 166 Z" fill="#101614" stroke="#26362f" stroke-width="1" /><text x="243" y="163" font-family="ui-monospace,&quot;SF Mono&quot;,Menlo,Consolas,monospace" fill="#7d928a" font-size="11px">order</text><text x="240" y="179" font-family="ui-monospace,&quot;SF Mono&quot;,Menlo,Consolas,monospace" fill="#7d928a" font-size="11px">absent?</text>
    <path d="M266 204 V236" marker-end="url(#ah4)" stroke="#5e7268" stroke-width="1.4" fill="none" /><text x="272" y="224" font-family="ui-monospace,&quot;SF Mono&quot;,Menlo,Consolas,monospace" fill="#7d928a" font-size="11px">yes + local fills</text>
    <rect x="206" y="236" width="120" height="46" rx="8" fill="#101614" stroke="#f87171" stroke-width="1" /><text x="232" y="264" font-family="ui-monospace,&quot;SF Mono&quot;,Menlo,Consolas,monospace" fill="#f87171" font-size="11px">HALT</text>

    <path d="M316 166 H360" marker-end="url(#ah4)" stroke="#22e07b" stroke-width="1.4" fill="none" /><text x="320" y="156" font-family="ui-monospace,&quot;SF Mono&quot;,Menlo,Consolas,monospace" fill="#22e07b" font-size="11px">no</text>
    <rect x="360" y="140" width="150" height="52" rx="9" fill="#101614" stroke="#26362f" stroke-width="1" /><text x="376" y="166" font-family="ui-monospace,&quot;SF Mono&quot;,Menlo,Consolas,monospace" fill="#eaf5ef" font-size="13px" font-weight="600">back-fill fills</text><text x="376" y="184" font-family="ui-monospace,&quot;SF Mono&quot;,Menlo,Consolas,monospace" fill="#7d928a" font-size="11px">exec-id dedup</text>
    <path d="M510 166 H548" marker-end="url(#ah4)" stroke="#5e7268" stroke-width="1.4" fill="none" />

    
    <path d="M610 118 L672 166 L610 214 L548 166 Z" fill="#101614" stroke="#26362f" stroke-width="1" /><text x="588" y="162" font-family="ui-monospace,&quot;SF Mono&quot;,Menlo,Consolas,monospace" fill="#7d928a" font-size="11px">booked</text><text x="588" y="178" font-family="ui-monospace,&quot;SF Mono&quot;,Menlo,Consolas,monospace" fill="#7d928a" font-size="11px">vs broker</text>

    
    <path d="M610 118 V70 H500" marker-end="url(#ah4)" stroke="#f87171" stroke-width="1.4" fill="none" /><text x="516" y="60" font-family="ui-monospace,&quot;SF Mono&quot;,Menlo,Consolas,monospace" fill="#f87171" font-size="11px">booked &gt; broker</text>
    <rect x="380" y="46" width="120" height="46" rx="8" fill="#101614" stroke="#f87171" stroke-width="1" /><text x="406" y="74" font-family="ui-monospace,&quot;SF Mono&quot;,Menlo,Consolas,monospace" fill="#f87171" font-size="11px">HALT</text>
    <text x="384" y="108" style="opacity:.8" font-family="ui-monospace,&quot;SF Mono&quot;,Menlo,Consolas,monospace" fill="#7d928a" font-size="11px">invented exposure</text>

    
    <path d="M672 166 H720" marker-end="url(#ah4)" stroke="#fbbf24" stroke-width="1.4" fill="none" /><text x="676" y="156" font-family="ui-monospace,&quot;SF Mono&quot;,Menlo,Consolas,monospace" fill="#fbbf24" font-size="11px">booked &lt; broker</text>
    <path d="M782 128 L826 166 L782 204 L738 166 Z" fill="#101614" stroke="#fbbf24" stroke-width="1" /><text x="762" y="163" font-family="ui-monospace,&quot;SF Mono&quot;,Menlo,Consolas,monospace" fill="#7d928a" font-size="11px">retries</text><text x="765" y="179" font-family="ui-monospace,&quot;SF Mono&quot;,Menlo,Consolas,monospace" fill="#7d928a" font-size="11px">left?</text>
    <path d="M782 204 V228" marker-end="url(#ah4)" stroke="#fbbf24" stroke-width="1.4" fill="none" /><text x="788" y="222" font-family="ui-monospace,&quot;SF Mono&quot;,Menlo,Consolas,monospace" fill="#fbbf24" font-size="11px">yes</text>
    <rect x="726" y="228" width="150" height="44" rx="8" fill="#101614" stroke="#fbbf24" stroke-width="1" /><text x="740" y="250" font-family="ui-monospace,&quot;SF Mono&quot;,Menlo,Consolas,monospace" fill="#fbbf24" font-size="11px">retry query</text><text x="740" y="266" font-family="ui-monospace,&quot;SF Mono&quot;,Menlo,Consolas,monospace" fill="#7d928a" font-size="11px">feed catches up</text>
    <path d="M726 250 H435 V182" marker-end="url(#ah4)" stroke="#7d928a" stroke-width="1.4" fill="none" stroke-dasharray="4 4" />
    <path d="M826 166 H872" marker-end="url(#ah4)" stroke="#f87171" stroke-width="1.4" fill="none" /><text x="836" y="156" font-family="ui-monospace,&quot;SF Mono&quot;,Menlo,Consolas,monospace" fill="#f87171" font-size="11px">no</text>
    <rect x="872" y="132" width="56" height="52" rx="8" fill="#101614" stroke="#f87171" stroke-width="1" /><text x="882" y="162" font-family="ui-monospace,&quot;SF Mono&quot;,Menlo,Consolas,monospace" fill="#f87171" font-size="11px">HALT</text>

    
    <path d="M610 214 V286" marker-end="url(#ah4)" stroke="#22e07b" stroke-width="1.4" fill="none" /><text x="618" y="256" font-family="ui-monospace,&quot;SF Mono&quot;,Menlo,Consolas,monospace" fill="#22e07b" font-size="11px">equal</text>
    <rect x="500" y="286" width="150" height="42" rx="8" fill="#101614" stroke="#22e07b" stroke-width="1" /><text x="516" y="312" font-family="ui-monospace,&quot;SF Mono&quot;,Menlo,Consolas,monospace" fill="#22e07b" font-size="11px">resolve → truth</text>
  </svg>